<?xml version="1.0" encoding="UTF-8" standalone="no"?>
<svg
   xmlns:dc="http://purl.org/dc/elements/1.1/"
   xmlns:cc="http://creativecommons.org/ns#"
   xmlns:rdf="http://www.w3.org/1999/02/22-rdf-syntax-ns#"
   xmlns:svg="http://www.w3.org/2000/svg"
   xmlns="http://www.w3.org/2000/svg"
   xmlns:xlink="http://www.w3.org/1999/xlink"
   xmlns:sodipodi="http://sodipodi.sourceforge.net/DTD/sodipodi-0.dtd"
   xmlns:inkscape="http://www.inkscape.org/namespaces/inkscape"
   inkscape:version="1.0 (4035a4f, 2020-05-01)"
   sodipodi:docname="cryptosat_logo.svg"
   version="1.1"
   viewBox="0 0 38.492499 29.083587"
   height="29.083586"
   width="38.4925"
   id="Logo">
  <metadata
     id="metadata51">
    <rdf:RDF>
      <cc:Work
         rdf:about="">
        <dc:format>image/svg+xml</dc:format>
        <dc:type
           rdf:resource="http://purl.org/dc/dcmitype/StillImage" />
        <dc:title></dc:title>
      </cc:Work>
    </rdf:RDF>
  </metadata>
  <sodipodi:namedview
     inkscape:current-layer="Logo"
     inkscape:window-maximized="0"
     inkscape:window-y="23"
     inkscape:window-x="0"
     inkscape:cy="-9.1948541"
     inkscape:cx="24.225986"
     inkscape:zoom="4.7568869"
     fit-margin-bottom="0"
     fit-margin-right="0"
     fit-margin-left="0"
     fit-margin-top="0"
     showgrid="false"
     id="namedview49"
     inkscape:window-height="818"
     inkscape:window-width="1217"
     inkscape:pageshadow="2"
     inkscape:pageopacity="0"
     guidetolerance="10"
     gridtolerance="10"
     objecttolerance="10"
     borderopacity="1"
     bordercolor="#666666"
     pagecolor="#ffffff" />
  <defs
     id="defs15">
    <linearGradient
       gradientUnits="objectBoundingBox"
       y2="0.5"
       x2="1"
       y1="0.5"
       id="linear-gradient">
      <stop
         id="stop10"
         stop-color="#fc00ff"
         offset="0.005" />
      <stop
         id="stop12"
         stop-color="#00dbde"
         offset="1" />
    </linearGradient>
    <linearGradient
       x1="516.2911"
       gradientTransform="scale(1.3814048,0.72390078)"
       y2="818.64936"
       x2="535.58957"
       y1="818.64936"
       gradientUnits="userSpaceOnUse"
       id="linearGradient123"
       xlink:href="#linear-gradient"
       inkscape:collect="always" />
    <linearGradient
       x1="592.23796"
       gradientTransform="scale(1.2150133,0.82303625)"
       y2="952.46072"
       x2="615.93729"
       y1="952.46072"
       gradientUnits="userSpaceOnUse"
       id="linearGradient125"
       xlink:href="#linear-gradient"
       inkscape:collect="always" />
  </defs>
  <g
     transform="translate(-621.15454,-585.63582)"
     data-name="Group 1"
     id="Group_1">
    <path
       fill="none"
       transform="translate(-60.865,-327.19)"
       d="m 687,930.337 -0.033,0.021 c -0.208,0.148 -0.394,0.287 -0.559,0.417 l -0.031,0.023 -0.127,0.1 c -0.016,0.014 -0.033,0.027 -0.049,0.039 l -0.1,0.084 -0.053,0.045 -0.082,0.072 c -0.016,0.016 -0.035,0.031 -0.051,0.047 -0.016,0.016 -0.049,0.045 -0.074,0.066 a 0.473,0.473 0 0 1 -0.045,0.043 c -0.035,0.033 -0.068,0.066 -0.1,0.1 -0.016,0.014 -0.029,0.029 -0.043,0.043 -0.014,0.014 -0.035,0.035 -0.051,0.053 l -0.043,0.045 -0.043,0.047 -0.037,0.043 -0.037,0.041 c -0.01,0.014 -0.021,0.027 -0.031,0.039 -0.01,0.012 -0.023,0.027 -0.033,0.041 l -0.027,0.033 -0.029,0.041 -0.021,0.027 c -0.016,0.021 -0.029,0.041 -0.041,0.06 l 0.076,0.029 h 0.008 l 0.082,0.027 0.012,0.006 c 0.029,0.008 0.058,0.018 0.088,0.027 l 0.018,0.006 0.1,0.029 0.016,0.006 0.121,0.033 h 0.008 c 0.09,0.023 0.187,0.049 0.3,0.072 a 0.193,0.193 0 0 1 0.031,0.008 l 0.127,0.025 c 0.021,0 0.043,0.008 0.064,0.014 0.021,0.006 0.068,0.012 0.1,0.019 0.032,0.007 0.057,0.01 0.086,0.016 0.029,0.006 0.062,0.01 0.094,0.016 l 0.1,0.016 0.08,0.012 c 0.043,0.008 0.086,0.014 0.129,0.019 h 0.023 c 0.189,0.025 0.392,0.049 0.612,0.068 h 0.043 a 14.217,14.217 0 0 1 -0.575,-2.035 c 0,0 -0.003,0.015 -0.003,0.017 z"
       data-name="Path 1"
       id="Path_1" />
    <path
       fill="none"
       transform="translate(-170.694,-181.601)"
       d="m 821.634,776.953 c -4.485,1.526 -14.871,5.4 -20.66,10.3 0.074,0.137 0.154,0.277 0.242,0.425 l 0.041,0.07 a 11.482,11.482 0 0 0 21.03,-3.409 q 0.026,-0.117 0.053,-0.246 c 0.02,-0.107 0.041,-0.222 0.063,-0.349 0.006,-0.039 0.039,-0.24 0.082,-0.528 a 11.018,11.018 0 0 0 -0.69,-5.9 c -0.052,-0.121 -0.106,-0.244 -0.161,-0.363 z"
       data-name="Path 2"
       id="Path_2" />
    <path
       style="fill:url(#linearGradient123)"
       fill="url(#linear-gradient)"
       transform="translate(-87.39)"
       d="m 713.678,599.33 0.136,-0.076 c 0.516,-0.286 1.068,-0.577 1.649,-0.864 l 0.185,-0.094 c 0.08,-0.039 0.16,-0.078 0.242,-0.115 0.214,-0.1 0.431,-0.207 0.653,-0.308 v 0 a 11.474,11.474 0 0 1 19.575,-5.543 v 0 q 0.363,-0.044 0.719,-0.082 c 0.09,-0.01 0.177,-0.019 0.265,-0.027 h 0.023 c 0.715,-0.066 1.4,-0.115 2.047,-0.144 l 0.148,-0.006 h 0.09 c 0.156,-0.006 0.306,-0.01 0.456,-0.012 v 0 c -0.072,-0.106 -0.144,-0.212 -0.219,-0.319 a 14.588,14.588 0 0 0 -26.421,7.483 c -0.008,0.128 -0.014,0.256 -0.019,0.383 l 0.387,-0.224 z"
       data-name="Path 3"
       id="Path_3" />
    <path
       style="fill:url(#linearGradient125)"
       fill="url(#linear-gradient)"
       transform="translate(-93.42,-178.943)"
       d="m 748.06,776.215 a 14.36,14.36 0 0 0 -0.577,-2.031 c -0.232,-0.014 -0.481,-0.023 -0.752,-0.027 -0.109,0 -0.216,0 -0.324,0 h -0.014 c -0.429,0 -0.848,0.012 -1.281,0.035 -0.144,0.006 -0.287,0.014 -0.435,0.023 v 0 h -0.039 -0.055 l -0.058,0.02 -0.01,-0.016 -0.174,0.012 a 0.185,0.185 0 0 1 -0.033,0 c -0.053,0 -0.1,0.006 -0.152,0.012 -0.07,0 -0.125,0.008 -0.179,0.014 h -0.023 c -0.285,0.025 -0.571,0.051 -0.865,0.084 l -0.191,0.021 c -0.072,0.006 -0.135,0.014 -0.195,0.021 -0.06,0.007 -0.117,0.012 -0.172,0.019 l -0.183,0.023 h -0.037 c -0.144,0.017 -0.283,0.035 -0.421,0.055 l -0.053,0.006 -0.154,0.021 -0.247,0.035 h -0.023 -0.008 -0.023 c -0.043,0 -0.088,0.012 -0.131,0.018 l -0.308,0.047 -0.2,0.031 -0.154,0.025 h -0.016 l -0.136,0.021 c -0.135,0.02 -0.265,0.041 -0.4,0.066 l -0.443,0.076 -0.177,0.031 -0.2,0.039 c -0.2,0.037 -0.4,0.074 -0.606,0.115 l -0.14,0.027 -0.366,0.074 -0.766,0.162 h -0.017 -0.02 c -0.228,0.049 -0.444,0.1 -0.663,0.148 l -0.047,0.012 -0.057,0.018 h -0.019 c -0.214,0.049 -0.429,0.1 -0.645,0.154 l -0.047,0.012 h -0.006 c -0.216,0.051 -0.433,0.105 -0.651,0.162 -0.218,0.057 -0.423,0.105 -0.634,0.16 l -0.207,0.057 c -0.191,0.049 -0.376,0.1 -0.563,0.15 -0.187,0.05 -0.4,0.109 -0.595,0.166 l -0.131,0.037 q -0.816,0.231 -1.616,0.478 -0.357,0.108 -0.708,0.222 c -0.291,0.092 -0.577,0.185 -0.864,0.281 -0.214,0.072 -0.429,0.144 -0.639,0.218 -0.248,0.084 -0.493,0.17 -0.735,0.257 -0.242,0.087 -0.483,0.173 -0.723,0.263 q -0.523,0.193 -1.029,0.392 l -0.372,0.146 -0.341,0.138 c -0.805,0.327 -1.577,0.663 -2.3,1 q -0.289,0.134 -0.567,0.269 -0.594,0.289 -1.144,0.581 l -0.119,0.06 c -0.094,0.051 -0.185,0.1 -0.277,0.152 -0.481,0.263 -0.951,0.538 -1.4,0.823 l -0.136,0.088 v 0 l -0.129,0.084 h -0.006 l -0.131,0.088 -0.136,0.094 -0.088,0.06 v 0 a 14.237,14.237 0 0 0 0.575,2.035 14.546,14.546 0 0 0 28.206,-4.341 c 0.01,-0.207 0.014,-0.415 0.014,-0.624 a 14.634,14.634 0 0 0 -0.312,-2.899 z m -27.169,8.343 a 0.148,0.148 0 0 0 0.029,0 0.448,0.448 0 0 1 0.047,0.179 z m 24.319,-4 c -0.043,0.289 -0.076,0.489 -0.082,0.528 -0.021,0.127 -0.043,0.242 -0.062,0.349 q -0.026,0.129 -0.053,0.246 a 11.552,11.552 0 0 1 -11.2,8.957 11.527,11.527 0 0 1 -9.828,-5.548 l -0.041,-0.07 c -0.088,-0.148 -0.168,-0.289 -0.242,-0.425 5.789,-4.9 16.175,-8.775 20.66,-10.3 0.055,0.119 0.109,0.242 0.16,0.363 a 11.02,11.02 0 0 1 0.688,5.902 z"
       data-name="Path 4"
       id="Path_4" />
    <path
       fill="#1a1a1a"
       transform="translate(-118.219,-373.327)"
       d="m 745.69,978.942 0.076,0.181 a 0.447,0.447 0 0 0 -0.047,-0.179 0.143,0.143 0 0 1 -0.029,-0.002 z"
       data-name="Path 5"
       id="Path_5" />
    <path
       fill="#ffffff"
       transform="translate(0,-119.914)"
       d="m 659.533,714.7 c -0.522,-1.844 -2.661,-2.741 -6.54,-2.741 -0.158,0 -0.318,0 -0.483,0 h -0.029 c -0.15,0 -0.3,0.006 -0.456,0.012 h -0.09 l -0.148,0.006 c -0.643,0.029 -1.331,0.078 -2.047,0.144 h -0.023 c -0.088,0.008 -0.175,0.018 -0.265,0.027 q -0.357,0.038 -0.719,0.082 v 0 l -0.235,0.031 c -0.2,0.025 -0.411,0.055 -0.62,0.082 -0.209,0.027 -0.4,0.057 -0.6,0.088 l -0.618,0.1 c -0.216,0.035 -0.433,0.072 -0.653,0.109 -0.2,0.035 -0.4,0.068 -0.6,0.105 -0.238,0.043 -0.478,0.09 -0.717,0.136 -0.187,0.037 -0.374,0.072 -0.563,0.111 -0.263,0.053 -0.53,0.111 -0.8,0.168 -0.17,0.037 -0.339,0.072 -0.511,0.111 -0.3,0.066 -0.595,0.136 -0.895,0.209 l -0.439,0.1 q -0.515,0.126 -1.035,0.261 l -0.324,0.082 c -0.456,0.121 -0.916,0.246 -1.376,0.376 -0.234,0.066 -0.468,0.134 -0.7,0.2 l -0.068,0.02 c -0.209,0.062 -0.417,0.123 -0.624,0.187 -0.031,0.008 -0.06,0.018 -0.09,0.027 -0.2,0.06 -0.4,0.121 -0.595,0.183 l -0.105,0.033 c -0.191,0.06 -0.382,0.121 -0.571,0.183 l -0.117,0.037 -0.548,0.181 -0.129,0.043 c -0.177,0.06 -0.353,0.119 -0.526,0.179 l -0.142,0.051 c -0.168,0.057 -0.333,0.117 -0.5,0.175 -0.051,0.019 -0.1,0.037 -0.156,0.057 -0.158,0.056 -0.316,0.113 -0.472,0.171 l -0.177,0.064 c -0.144,0.055 -0.289,0.107 -0.431,0.162 l -0.207,0.078 c -0.127,0.049 -0.253,0.1 -0.38,0.148 -0.082,0.031 -0.164,0.062 -0.244,0.1 -0.1,0.039 -0.2,0.08 -0.3,0.121 l -0.312,0.125 -0.14,0.059 c -0.71,0.292 -1.4,0.589 -2.055,0.893 v 0 c -0.222,0.1 -0.439,0.2 -0.653,0.308 -0.082,0.037 -0.162,0.076 -0.242,0.115 l -0.185,0.094 c -0.581,0.286 -1.133,0.577 -1.649,0.864 l -0.136,0.076 -0.08,0.047 -0.387,0.224 v 0 a 20.238,20.238 0 0 0 -2.062,1.374 l -0.008,0.006 c -0.072,0.055 -0.14,0.109 -0.211,0.164 l -0.043,0.035 -0.175,0.144 -0.064,0.055 c -0.051,0.043 -0.1,0.086 -0.15,0.131 -0.025,0.021 -0.053,0.043 -0.076,0.066 -0.045,0.039 -0.088,0.08 -0.133,0.119 -0.027,0.025 -0.055,0.051 -0.082,0.078 -0.027,0.027 -0.078,0.074 -0.115,0.111 -0.037,0.037 -0.058,0.055 -0.086,0.084 l -0.1,0.105 -0.084,0.088 -0.094,0.1 c -0.027,0.029 -0.055,0.06 -0.08,0.09 l -0.086,0.1 -0.076,0.094 c -0.025,0.033 -0.053,0.064 -0.078,0.1 l -0.07,0.094 -0.07,0.1 c -0.023,0.031 -0.045,0.062 -0.066,0.094 -0.021,0.032 -0.043,0.064 -0.062,0.1 -0.019,0.036 -0.041,0.062 -0.06,0.094 -0.019,0.032 -0.039,0.064 -0.057,0.1 l -0.053,0.094 -0.053,0.1 c -0.016,0.031 -0.031,0.062 -0.045,0.094 l -0.047,0.094 c -0.014,0.031 -0.025,0.062 -0.039,0.094 -0.014,0.032 -0.027,0.062 -0.039,0.1 -0.012,0.038 -0.023,0.06 -0.033,0.092 -0.01,0.032 -0.023,0.062 -0.033,0.1 -0.01,0.038 -0.018,0.06 -0.027,0.09 -0.009,0.03 -0.02,0.064 -0.027,0.1 -0.007,0.036 -0.014,0.058 -0.019,0.088 -0.005,0.03 -0.016,0.064 -0.021,0.1 -0.005,0.036 -0.01,0.058 -0.014,0.088 -0.004,0.03 -0.012,0.064 -0.016,0.1 -0.004,0.036 -0.006,0.058 -0.008,0.086 -0.002,0.028 -0.006,0.066 -0.008,0.1 -0.002,0.034 0,0.057 0,0.086 a 0.857,0.857 0 0 0 0,0.1 c 0,0.027 0,0.057 0,0.086 0,0.029 0,0.064 0.006,0.1 0.006,0.036 0.006,0.058 0.01,0.088 0.004,0.03 0.006,0.064 0.012,0.1 a 0.877,0.877 0 0 0 0.018,0.1 0.738,0.738 0 0 0 0.016,0.086 c 0.012,0.06 0.027,0.121 0.045,0.181 0.37,1.308 1.612,2.16 3.69,2.534 a 16.5,16.5 0 0 0 2.879,0.222 c 0.119,0 0.24,0 0.359,0 h 0.035 c 0.029,0 0.06,0 0.092,0 v 0 a 0.457,0.457 0 0 1 0.051,0 14.449,14.449 0 0 1 -1.635,-3.2 h -0.043 c -0.22,-0.019 -0.423,-0.043 -0.612,-0.068 h -0.023 c -0.043,-0.006 -0.086,-0.012 -0.129,-0.019 l -0.08,-0.012 -0.1,-0.016 c -0.031,-0.006 -0.062,-0.012 -0.094,-0.016 -0.032,-0.004 -0.057,-0.012 -0.086,-0.016 -0.029,-0.004 -0.068,-0.014 -0.1,-0.019 -0.032,-0.005 -0.043,-0.01 -0.064,-0.014 l -0.127,-0.025 a 0.2,0.2 0 0 0 -0.031,-0.008 c -0.109,-0.023 -0.207,-0.049 -0.3,-0.072 h -0.008 l -0.121,-0.033 -0.016,-0.006 -0.1,-0.029 -0.018,-0.006 c -0.029,-0.01 -0.058,-0.019 -0.088,-0.027 l -0.012,-0.006 -0.082,-0.027 c 0,0 -0.006,0 -0.008,0 l -0.076,-0.029 c 0.012,-0.02 0.025,-0.039 0.041,-0.06 l 0.021,-0.027 0.029,-0.041 0.027,-0.033 c 0.01,-0.014 0.022,-0.027 0.033,-0.041 0.011,-0.014 0.021,-0.025 0.031,-0.039 l 0.037,-0.041 0.037,-0.043 0.043,-0.047 0.043,-0.045 c 0.016,-0.018 0.033,-0.035 0.051,-0.053 0.018,-0.018 0.027,-0.029 0.043,-0.043 0.033,-0.033 0.066,-0.066 0.1,-0.1 a 0.466,0.466 0 0 0 0.045,-0.043 c 0.025,-0.021 0.049,-0.045 0.074,-0.066 0.025,-0.021 0.035,-0.031 0.051,-0.047 l 0.082,-0.072 0.053,-0.045 0.1,-0.084 c 0.016,-0.012 0.033,-0.025 0.049,-0.039 l 0.127,-0.1 0.031,-0.023 c 0.166,-0.131 0.351,-0.269 0.559,-0.417 l 0.033,-0.021 c 0,0 0,0 0,0 v 0 l 0.088,-0.06 0.136,-0.094 0.131,-0.088 h 0.006 l 0.129,-0.084 v 0 l 0.136,-0.088 c 0.448,-0.285 0.918,-0.559 1.4,-0.823 0.092,-0.053 0.183,-0.1 0.277,-0.152 l 0.119,-0.06 q 0.55,-0.292 1.144,-0.581 0.278,-0.135 0.567,-0.269 c 0.727,-0.339 1.5,-0.674 2.3,-1 l 0.341,-0.138 0.372,-0.146 q 0.506,-0.2 1.029,-0.392 c 0.24,-0.09 0.48,-0.177 0.723,-0.263 0.243,-0.086 0.487,-0.174 0.735,-0.257 0.211,-0.074 0.425,-0.146 0.639,-0.218 0.287,-0.1 0.573,-0.189 0.864,-0.281 q 0.351,-0.114 0.708,-0.222 0.8,-0.246 1.616,-0.478 l 0.131,-0.037 c 0.2,-0.057 0.4,-0.111 0.594,-0.166 0.194,-0.055 0.372,-0.1 0.563,-0.15 l 0.207,-0.057 c 0.211,-0.055 0.419,-0.109 0.633,-0.16 0.214,-0.051 0.435,-0.111 0.651,-0.162 h 0.006 l 0.047,-0.012 c 0.216,-0.055 0.431,-0.105 0.645,-0.154 h 0.02 l 0.057,-0.018 0.047,-0.012 c 0.218,-0.051 0.435,-0.1 0.663,-0.148 h 0.02 0.018 l 0.766,-0.162 0.366,-0.074 0.14,-0.027 c 0.2,-0.041 0.405,-0.078 0.606,-0.115 l 0.2,-0.039 0.177,-0.031 0.443,-0.076 c 0.133,-0.025 0.263,-0.047 0.4,-0.066 l 0.136,-0.021 h 0.016 l 0.154,-0.025 0.2,-0.031 0.308,-0.047 c 0.043,-0.006 0.088,-0.014 0.131,-0.018 h 0.023 0.008 0.023 l 0.247,-0.035 0.154,-0.021 0.053,-0.006 c 0.138,-0.019 0.277,-0.037 0.421,-0.055 h 0.037 l 0.183,-0.023 c 0.055,-0.008 0.109,-0.014 0.172,-0.019 0.063,-0.005 0.123,-0.016 0.195,-0.021 l 0.191,-0.021 c 0.294,-0.033 0.581,-0.058 0.865,-0.084 h 0.023 c 0.055,-0.006 0.109,-0.01 0.179,-0.014 0.051,-0.006 0.1,-0.01 0.152,-0.012 a 0.186,0.186 0 0 0 0.033,0 l 0.174,-0.012 c 0.023,0 0.045,0 0.068,0 h 0.055 0.039 v 0 c 0.148,-0.01 0.29,-0.018 0.435,-0.023 0.433,-0.023 0.852,-0.035 1.281,-0.035 h 0.014 c 0.107,0 0.214,0 0.324,0 0.271,0 0.52,0.014 0.752,0.027 a 6.777,6.777 0 0 1 2.329,0.435 3.192,3.192 0 0 1 -0.419,0.507 q -0.091,0.091 -0.193,0.187 l -0.053,0.049 c -0.066,0.058 -0.133,0.119 -0.2,0.179 -0.006,0 -0.01,0.01 -0.016,0.014 -0.082,0.07 -0.17,0.14 -0.259,0.212 a 0.285,0.285 0 0 1 -0.029,0.021 c -0.082,0.064 -0.166,0.127 -0.252,0.191 -0.105,0.078 -0.214,0.158 -0.327,0.236 a 14.639,14.639 0 0 1 0.3,2.943 c 0,0.209 0,0.417 -0.014,0.624 0.618,-0.363 1.17,-0.719 1.661,-1.068 a 0.272,0.272 0 0 0 0.029,-0.021 c 0.146,-0.1 0.287,-0.209 0.423,-0.312 0.016,-0.014 0.033,-0.025 0.051,-0.039 0.131,-0.1 0.255,-0.2 0.376,-0.3 0.016,-0.014 0.031,-0.027 0.049,-0.041 0.119,-0.1 0.234,-0.2 0.343,-0.3 0.014,-0.012 0.025,-0.023 0.037,-0.035 0.111,-0.1 0.216,-0.2 0.318,-0.306 a 0.223,0.223 0 0 1 0.021,-0.022 c 0.1,-0.107 0.2,-0.212 0.294,-0.318 a 3.894,3.894 0 0 0 1.115,-2.518 2.862,2.862 0 0 0 -0.113,-0.877 z"
       data-name="Path 6"
       id="Path_6" />
  </g>
</svg>
